# xmcd
#
# Track frame offsets:
# 150
# 12285
# 25975
# 39133
# 51400
# 65049
# 77527
# 88841
# 103357
# 116317
# 128698
# 142383
# 157130
#
# Disc length: 2269 seconds
#
# Revision: 0
# Processed by: cddbd v1.5.1PL0 Copyright (c) Steve Scherf et al.
# Submitted via: Audion 3.0.2 (http://www.panic.com/audion/)
#
DISCID=b408db0d
DTITLE=Don Tosti - aka "El Tostado"
DYEAR=1900
DGENRE=
TTITLE0=Loco
TTITLE1=La Lola
TTITLE2=Vine Por Ti
TTITLE3=Tacos 4 Two
TTITLE4=No Me Dejes
TTITLE5=Chavalita
TTITLE6=Burlate
TTITLE7=Envidiosa
TTITLE8=Castigame
TTITLE9=Telerana
TTITLE10=Montuno # Uno
TTITLE11=Satin Negro
TTITLE12=Pachuco Boogie
EXTD=
EXTT0=
EXTT1=
EXTT2=
EXTT3=
EXTT4=
EXTT5=
EXTT6=
EXTT7=
EXTT8=
EXTT9=
EXTT10=
EXTT11=
EXTT12=
PLAYORDER=
